<svg xmlns="http://www.w3.org/2000/svg" xmlns:xlink="http://www.w3.org/1999/xlink">
  <symbol id="asterisk" viewBox="0 0 475 512">
    <path
      d="M423.428 300c17.428 10 23.428 32.572 13.428 50l-18.286 31.428c-10 17.428-32.572 23.428-50 13.428l-76-43.714v87.714c0 20-16.572 36.572-36.572 36.572h-36.572c-20 0-36.572-16.572-36.572-36.572v-87.714l-76 43.714c-17.428 10-40 4-50-13.428l-18.285-31.428c-10-17.428-4-40 13.428-50l76-44-76-44c-17.428-10-23.428-32.572-13.428-50l18.285-31.428c10-17.428 32.572-23.428 50-13.428l76 43.715v-87.715c0-20 16.572-36.572 36.572-36.572h36.572c20 0 36.572 16.572 36.572 36.572v87.715l76-43.715c17.428-10 40-4 50 13.428l18.286 31.428c10 17.428 4 40-13.428 50l-76 44z"></path>
  </symbol>
  <symbol id="search" viewBox="0 0 475 512">
    <path
      d="M329.143 237.714c0-70.572-57.428-128-128-128s-128 57.428-128 128 57.428 128 128 128 128-57.428 128-128zM475.428 475.428c0 20-16.572 36.572-36.572 36.572-9.714 0-19.143-4-25.714-10.857l-98-97.714c-33.428 23.143-73.428 35.428-114 35.428-111.143 0-201.143-90-201.143-201.143s90-201.143 201.143-201.143 201.143 90 201.143 201.143c0 40.571-12.286 80.571-35.428 114l98 98c6.572 6.572 10.572 16 10.572 25.714z"></path>
  </symbol>
  <symbol id="heart" viewBox="0 0 512 512">
    <path
      d="M256 475.428c-4.572 0-9.143-1.714-12.572-5.143l-178.286-172c-2.285-2-65.143-59.428-65.143-128 0-83.715 51.143-133.714 136.571-133.714 50 0 96.857 39.428 119.428 61.715 22.572-22.285 69.428-61.715 119.428-61.715 85.428 0 136.571 50 136.571 133.714 0 68.572-62.857 126-65.428 128.571l-178 171.428c-3.428 3.428-8 5.143-12.572 5.143z"></path>
  </symbol>
  <symbol id="print" viewBox="0 0 475 512">
    <path
      d="M109.715 438.857h256v-73.143h-256v73.143zM109.715 256h256v-109.714h-45.714c-15.143 0-27.428-12.286-27.428-27.428v-45.715h-182.857v182.857zM438.857 274.286c0-10-8.286-18.286-18.286-18.286s-18.286 8.286-18.286 18.286 8.286 18.286 18.286 18.286 18.286-8.286 18.286-18.286zM475.428 274.286v118.857c0 4.857-4.286 9.143-9.143 9.143h-64v45.714c0 15.143-12.286 27.428-27.428 27.428h-274.286c-15.143 0-27.428-12.286-27.428-27.428v-45.714h-64c-4.857 0-9.143-4.286-9.143-9.143v-118.857c0-30 24.857-54.857 54.857-54.857h18.285v-155.429c0-15.143 12.285-27.428 27.428-27.428h192c15.143 0 36 8.572 46.857 19.428l43.428 43.428c10.857 10.857 19.428 31.715 19.428 46.857v73.143h18.286c30 0 54.857 24.857 54.857 54.857z"></path>
  </symbol>
  <symbol id="twitter" viewBox="0 0 475 512">
    <path
      d="M462.857 116.572c-12.572 18.285-28.286 34.572-46.286 47.715 0.286 4 0.286 8 0.286 12 0 122-92.857 262.572-262.572 262.572-52.285 0-100.857-15.143-141.714-41.428 7.428 0.857 14.572 1.143 22.285 1.143 43.143 0 82.857-14.572 114.572-39.428-40.572-0.857-74.572-27.428-86.285-64 5.715 0.857 11.428 1.428 17.428 1.428 8.285 0 16.572-1.143 24.285-3.143-42.285-8.572-74-45.714-74-90.572v-1.143c12.285 6.857 26.572 11.143 41.715 11.714-24.857-16.571-41.143-44.857-41.143-76.857 0-17.143 4.572-32.857 12.572-46.572 45.428 56 113.715 92.572 190.286 96.572-1.429-6.857-2.286-14-2.286-21.143 0-50.857 41.143-92.285 92.286-92.285 26.572 0 50.572 11.143 67.428 29.143 20.857-4 40.857-11.715 58.572-22.285-6.857 21.428-21.428 39.428-40.572 50.857 18.572-2 36.572-7.143 53.143-14.285z"></path>
  </symbol>
  <symbol id="facebook" viewBox="0 0 301 512">
    <path
      d="M274 3.429v75.428h-44.857c-35.143 0-41.715 16.857-41.715 41.143v54h83.714l-11.143 84.572h-72.572v216.857h-87.428v-216.857h-72.857v-84.572h72.857v-62.285c0-72.285 44.285-111.715 108.857-111.715 30.857 0 57.428 2.285 65.143 3.429z"></path>
  </symbol>
  <symbol id="feed" viewBox="0 0 403 512">
    <path
      d="M109.715 384c0 30.286-24.572 54.857-54.857 54.857s-54.857-24.572-54.857-54.857 24.572-54.857 54.857-54.857 54.857 24.572 54.857 54.857zM256 419.143c0.286 5.143-1.429 10-4.857 13.714-3.429 4-8.286 6-13.429 6h-38.572c-9.428 0-17.143-7.143-18-16.572-8.286-87.143-77.428-156.286-164.571-164.572-9.428-0.857-16.572-8.572-16.572-18v-38.572c0-5.143 2-10 6-13.428 3.143-3.143 7.715-4.857 12.285-4.857h1.428c60.857 4.857 118.285 31.429 161.428 74.857 43.428 43.143 70 100.572 74.857 161.428zM402.286 419.714c0.286 4.857-1.428 9.714-5.143 13.428-3.428 3.714-8 5.714-13.143 5.714h-40.857c-9.714 0-17.714-7.428-18.286-17.143-9.428-166-141.714-298.286-307.714-308-9.714-0.572-17.143-8.572-17.143-18v-40.857c0-5.143 2-9.715 5.715-13.143 3.429-3.428 8-5.143 12.572-5.143h0.857c100 5.143 194 47.143 264.857 118.285 71.143 70.857 113.143 164.857 118.286 264.857z"></path>
  </symbol>
  <symbol id="bars" viewBox="0 0 439 512">
    <path
      d="M438.857 384v36.572c0 10-8.286 18.286-18.286 18.286h-402.286c-10 0-18.285-8.286-18.285-18.286v-36.572c0-10 8.286-18.286 18.285-18.286h402.286c10 0 18.286 8.286 18.286 18.286zM438.857 237.714v36.572c0 10-8.286 18.286-18.286 18.286h-402.286c-10 0-18.285-8.286-18.285-18.286v-36.572c0-10 8.286-18.286 18.285-18.286h402.286c10 0 18.286 8.286 18.286 18.286zM438.857 91.428v36.572c0 10-8.286 18.286-18.286 18.286h-402.286c-10 0-18.285-8.286-18.285-18.286v-36.572c0-10 8.286-18.285 18.285-18.285h402.286c10 0 18.286 8.285 18.286 18.285z"></path>
  </symbol>
  <symbol id="google-plus" viewBox="0 0 658 512">
    <path
      d="M410.572 260.857c0 119.714-80.286 204.571-201.143 204.571-115.715 0-209.429-93.714-209.429-209.429s93.715-209.429 209.429-209.429c56.571 0 103.715 20.572 140.286 54.857l-56.857 54.571c-15.428-14.857-42.572-32.285-83.428-32.285-71.428 0-129.714 59.143-129.714 132.286s58.286 132.286 129.714 132.286c82.857 0 114-59.714 118.857-90.286h-118.857v-72h197.714c2 10.572 3.428 21.143 3.428 34.857zM658.285 226v60h-59.715v59.714h-60v-59.714h-59.714v-60h59.714v-59.714h60v59.714h59.715z"></path>
  </symbol>
  <symbol id="email" viewBox="0 0 512 512">
    <path
      d="M512 202.857v226.857c0 25.143-20.572 45.714-45.714 45.714h-420.572c-25.143 0-45.715-20.572-45.715-45.714v-226.857c8.572 9.429 18.285 17.715 28.857 24.857 47.428 32.286 95.428 64.572 142 98.572 24 17.714 53.714 39.428 84.857 39.428h0.571c31.143 0 60.857-21.714 84.857-39.428 46.572-33.714 94.572-66.286 142.286-98.572 10.286-7.143 20-15.428 28.572-24.857zM512 118.857c0 32-23.714 60.857-48.857 78.285-44.572 30.857-89.428 61.714-133.714 92.857-18.572 12.857-50 39.143-73.143 39.143h-0.571c-23.143 0-54.571-26.286-73.143-39.143-44.286-31.143-89.143-62-133.429-92.857-20.285-13.714-49.143-46-49.143-72 0-28 15.143-52 45.715-52h420.572c24.857 0 45.715 20.572 45.715 45.715z"></path>
  </symbol>
  <symbol id="angle-double-left" viewBox="0 0 302 512">
    <path
      d="M179.143 393.143c0 2.286-1.143 4.857-2.857 6.572l-14.286 14.286c-1.714 1.714-4.286 2.857-6.572 2.857s-4.857-1.143-6.572-2.857l-133.143-133.143c-1.714-1.714-2.857-4.286-2.857-6.572s1.143-4.857 2.857-6.572l133.143-133.143c1.714-1.714 4.286-2.857 6.572-2.857s4.857 1.143 6.572 2.857l14.286 14.286c1.714 1.714 2.857 4.286 2.857 6.571s-1.143 4.857-2.857 6.572l-112.285 112.286 112.285 112.286c1.714 1.714 2.857 4.286 2.857 6.572zM288.857 393.143c0 2.286-1.143 4.857-2.857 6.572l-14.286 14.286c-1.714 1.714-4.286 2.857-6.572 2.857s-4.857-1.143-6.572-2.857l-133.143-133.143c-1.715-1.714-2.857-4.286-2.857-6.572s1.143-4.857 2.857-6.572l133.143-133.143c1.714-1.714 4.286-2.857 6.572-2.857s4.857 1.143 6.572 2.857l14.286 14.286c1.714 1.714 2.857 4.286 2.857 6.571s-1.143 4.857-2.857 6.572l-112.286 112.286 112.286 112.286c1.714 1.714 2.857 4.286 2.857 6.572z"></path>
  </symbol>
  <symbol id="angle-double-right" viewBox="0 0 283 512">
    <path
      d="M170 274.286c0 2.286-1.143 4.857-2.857 6.572l-133.143 133.143c-1.715 1.714-4.285 2.857-6.572 2.857s-4.857-1.143-6.572-2.857l-14.286-14.286c-1.715-1.714-2.857-4.286-2.857-6.572s1.143-4.857 2.857-6.572l112.285-112.286-112.285-112.286c-1.715-1.714-2.857-4.286-2.857-6.572s1.143-4.857 2.857-6.572l14.285-14.286c1.715-1.714 4.285-2.857 6.572-2.857s4.857 1.143 6.572 2.857l133.143 133.143c1.714 1.714 2.857 4.286 2.857 6.572zM279.714 274.286c0 2.286-1.143 4.857-2.857 6.572l-133.143 133.143c-1.714 1.714-4.286 2.857-6.571 2.857s-4.857-1.143-6.572-2.857l-14.285-14.286c-1.715-1.714-2.857-4.286-2.857-6.572s1.143-4.857 2.857-6.572l112.285-112.286-112.285-112.286c-1.715-1.714-2.857-4.286-2.857-6.572s1.143-4.857 2.857-6.572l14.285-14.286c1.714-1.714 4.286-2.857 6.572-2.857s4.857 1.143 6.572 2.857l133.143 133.143c1.714 1.714 2.857 4.286 2.857 6.572z"></path>
  </symbol>
  <symbol id="angle-left" viewBox="0 0 192 512">
    <path
      d="M179.143 155.429c0 2.286-1.143 4.857-2.857 6.571l-112.285 112.286 112.285 112.286c1.714 1.714 2.857 4.286 2.857 6.572s-1.143 4.857-2.857 6.572l-14.286 14.286c-1.714 1.714-4.286 2.857-6.572 2.857s-4.857-1.143-6.572-2.857l-133.143-133.143c-1.714-1.714-2.857-4.286-2.857-6.572s1.143-4.857 2.857-6.572l133.143-133.143c1.714-1.714 4.286-2.857 6.572-2.857s4.857 1.143 6.572 2.857l14.286 14.286c1.714 1.714 2.857 4 2.857 6.571z"></path>
  </symbol>
  <symbol id="angle-right" viewBox="0 0 174 512">
    <path
      d="M170 274.286c0 2.286-1.143 4.857-2.857 6.572l-133.143 133.143c-1.715 1.714-4.285 2.857-6.572 2.857s-4.857-1.143-6.572-2.857l-14.286-14.286c-1.715-1.714-2.857-4-2.857-6.572 0-2.286 1.143-4.857 2.857-6.572l112.285-112.286-112.285-112.286c-1.715-1.714-2.857-4.286-2.857-6.572s1.143-4.857 2.857-6.572l14.285-14.286c1.715-1.714 4.285-2.857 6.572-2.857s4.857 1.143 6.572 2.857l133.143 133.143c1.714 1.714 2.857 4.286 2.857 6.572z"></path>
  </symbol>
  <symbol id="quote-left" viewBox="0 0 475 512">
    <path
      d="M219.429 274.286v109.714c0 30.286-24.571 54.857-54.857 54.857h-109.715c-30.285 0-54.857-24.572-54.857-54.857v-201.143c0-80.572 65.715-146.286 146.286-146.286h18.286c10 0 18.286 8.285 18.286 18.285v36.572c0 10-8.286 18.285-18.286 18.285h-18.286c-40.285 0-73.143 32.857-73.143 73.143v9.143c0 15.143 12.285 27.429 27.428 27.429h64c30.286 0 54.857 24.572 54.857 54.857zM475.428 274.286v109.714c0 30.286-24.572 54.857-54.857 54.857h-109.714c-30.286 0-54.857-24.572-54.857-54.857v-201.143c0-80.572 65.714-146.286 146.286-146.286h18.286c10 0 18.286 8.285 18.286 18.285v36.572c0 10-8.286 18.285-18.286 18.285h-18.286c-40.286 0-73.143 32.857-73.143 73.143v9.143c0 15.143 12.286 27.429 27.428 27.429h64c30.286 0 54.857 24.572 54.857 54.857z"></path>
  </symbol>
  <symbol id="share-alt" viewBox="0 0 439 512">
    <path
      d="M347.428 292.572c50.572 0 91.428 40.857 91.428 91.428s-40.857 91.428-91.428 91.428-91.428-40.857-91.428-91.428c0-3.143 0.286-6.572 0.572-9.714l-102.857-51.428c-16.285 15.143-38.285 24.572-62.285 24.572-50.572 0-91.428-40.857-91.428-91.428s40.857-91.428 91.428-91.428c24 0 46 9.428 62.285 24.572l102.857-51.428c-0.286-3.143-0.572-6.572-0.572-9.714 0-50.572 40.857-91.428 91.428-91.428s91.428 40.857 91.428 91.428-40.857 91.428-91.428 91.428c-24 0-46-9.428-62.286-24.572l-102.857 51.428c0.286 3.143 0.571 6.572 0.571 9.714s-0.286 6.572-0.571 9.714l102.857 51.428c16.286-15.143 38.286-24.572 62.286-24.572z"></path>
  </symbol>
  <symbol id="facebook-official" viewBox="0 0 439 512">
    <path
      d="M414.572 36.572c13.428 0 24.286 10.857 24.286 24.285v390.286c0 13.428-10.857 24.286-24.286 24.286h-111.714v-170h56.857l8.572-66.286h-65.428v-42.286c0-19.143 5.143-32 32.857-32l34.857-0.286v-59.143c-6-0.857-26.857-2.572-50.857-2.572-50.572 0-85.428 30.857-85.428 87.428v48.857h-57.143v66.285h57.143v170h-210c-13.428 0-24.285-10.857-24.285-24.286v-390.286c0-13.428 10.857-24.285 24.285-24.285h390.286z"></path>
  </symbol>
  <symbol id="pinterest-p" viewBox="0 0 366 512">
    <path
      d="M0 170.571c0-105.428 96.572-170.571 194.286-170.571 89.714 0 171.429 61.715 171.429 156.286 0 88.857-45.428 187.429-146.571 187.429-24 0-54.285-12-66-34.286-21.715 86-20 98.857-68 164.571l-4 1.428-2.572-2.857c-1.715-18-4.285-35.714-4.285-53.714 0-58.286 26.857-142.572 40-199.143-7.143-14.571-9.143-32.285-9.143-48.285 0-28.857 20-65.428 52.571-65.428 24 0 36.857 18.285 36.857 40.857 0 37.143-25.143 72-25.143 108 0 24.572 20.286 41.714 44 41.714 65.714 0 86-94.857 86-145.429 0-67.715-48-104.572-112.857-104.572-75.428 0-133.714 54.285-133.714 130.857 0 36.857 22.572 55.714 22.572 64.572 0 7.428-5.428 33.714-14.857 33.714-1.428 0-3.428-0.572-4.857-0.857-40.857-12.286-55.715-66.857-55.715-104.286z"></path>
  </symbol>
  <symbol id="whatsapp" viewBox="0 0 439 512">
    <path
      d="M281.428 278.286c4.857 0 51.428 24.286 53.428 27.714 0.572 1.428 0.572 3.143 0.572 4.286 0 7.143-2.286 15.143-4.857 21.714-6.572 16-33.143 26.286-49.428 26.286-13.714 0-42-12-54.286-17.714-40.857-18.572-66.286-50.286-90.857-86.572-10.857-16-20.572-35.714-20.285-55.428v-2.286c0.572-18.857 7.428-32.286 21.143-45.143 4.286-4 8.857-6.286 14.857-6.286 3.429 0 6.857 0.857 10.571 0.857 7.714 0 9.143 2.286 12 9.714 2 4.857 16.572 43.714 16.572 46.572 0 10.857-19.714 23.143-19.714 29.714 0 1.429 0.571 2.857 1.429 4.286 6.286 13.428 18.285 28.857 29.143 39.143 13.143 12.572 27.143 20.857 43.143 28.857 2 1.143 4 2 6.286 2 8.571 0 22.857-27.714 30.285-27.714zM223.429 429.714c98.857 0 179.429-80.572 179.429-179.429s-80.572-179.429-179.429-179.429-179.429 80.572-179.429 179.429c0 37.715 12 74.571 34.285 105.143l-22.572 66.572 69.143-22c29.143 19.143 63.715 29.714 98.571 29.714zM223.429 34.857c118.857 0 215.429 96.571 215.429 215.429s-96.572 215.429-215.429 215.429c-36.285 0-72.285-9.143-104.285-26.857l-119.143 38.286 38.857-115.714c-20.285-33.428-30.857-72-30.857-111.143 0-118.857 96.572-215.429 215.429-215.429z"></path>
  </symbol>
  <symbol id="get-pocket" viewBox="0 0 491 512">
    <path
      d="M447.143 36.572c24.857 0 44.286 20 44.286 44.572v148.286c0 136.857-109.428 246-245.429 246-136.571 0-246-109.143-246-246v-148.286c0-24.285 20.285-44.572 44.572-44.572h402.572zM246 340.572c8.572 0 17.143-3.428 23.428-9.428l115.428-110.857c6.572-6.286 10.572-15.143 10.572-24.285 0-18.572-15.143-33.714-33.714-33.714-8.857 0-17.143 3.429-23.428 9.428l-92.286 88.572-92.286-88.572c-6.286-6-14.572-9.428-23.143-9.428-18.572 0-33.715 15.143-33.715 33.714 0 9.143 3.715 18 10.285 24.286l115.714 110.857c6 6 14.572 9.428 23.143 9.428z"></path>
  </symbol>
  <symbol id="commenting-o" viewBox="0 0 512 512">
    <path
      d="M182.857 256c0 20.286-16.285 36.572-36.571 36.572s-36.572-16.286-36.572-36.572 16.285-36.572 36.572-36.572 36.572 16.286 36.572 36.572zM292.572 256c0 20.286-16.286 36.572-36.572 36.572s-36.572-16.286-36.572-36.572 16.286-36.572 36.572-36.572 36.572 16.286 36.572 36.572zM402.286 256c0 20.286-16.286 36.572-36.572 36.572s-36.572-16.286-36.572-36.572 16.286-36.572 36.572-36.572 36.572 16.286 36.572 36.572zM256 109.715c-118.857 0-219.429 66.857-219.429 146.286 0 42.572 28.572 83.143 78 111.143l24.857 14.286-7.714 27.428c-5.428 20.286-12.572 36-20 49.143 28.857-12 55.143-28.286 78.572-48.857l12.286-10.857 16.286 1.714c12.286 1.428 24.857 2.286 37.143 2.286 118.857 0 219.429-66.857 219.429-146.286s-100.572-146.286-219.429-146.286zM512 256c0 101.143-114.572 182.857-256 182.857-14 0-28-0.857-41.428-2.286-37.428 33.143-82 56.572-131.429 69.143-10.285 2.857-21.428 4.857-32.572 6.286h-1.428c-5.715 0-10.857-4.572-12.285-10.857v-0.286c-1.428-7.143 3.428-11.428 7.715-16.572 18-20.286 38.572-37.428 52-85.143-58.857-33.428-96.572-85.143-96.572-143.143 0-100.857 114.572-182.857 256-182.857v0c141.428 0 256 82 256 182.857z"></path>
  </symbol>
  <symbol id="reddit-alien" viewBox="0 0 512 512">
    <path
      d="M512 241.714c0 22.286-12.572 41.428-31.143 50.857 2.286 8.857 3.428 18 3.428 27.428 0 90.286-102 163.428-227.714 163.428-125.428 0-227.429-73.143-227.429-163.428 0-9.143 1.143-18.286 3.143-26.857-19.143-9.428-32.285-28.857-32.285-51.428 0-31.428 25.428-56.857 56.857-56.857 16.285 0 30.857 6.857 41.428 18 38.572-26.857 90-44.285 147.143-46.285l33.143-148.857c1.143-5.143 6.572-8.572 11.714-7.428l105.428 23.143c6.857-13.714 21.428-23.428 38-23.428 23.714 0 42.857 19.143 42.857 42.572 0 23.715-19.143 42.857-42.857 42.857-23.428 0-42.572-19.143-42.572-42.572l-95.428-21.143-29.714 134.857c57.428 1.714 109.428 18.857 148.286 45.714 10.286-10.857 24.857-17.428 40.857-17.428 31.428 0 56.857 25.428 56.857 56.857zM119.428 298.572c0 23.714 19.143 42.857 42.572 42.857 23.714 0 42.857-19.143 42.857-42.857 0-23.428-19.143-42.572-42.857-42.572-23.428 0-42.572 19.143-42.572 42.572zM350.857 400c4.286-4.286 4.286-10.572 0-14.857-4-4-10.572-4-14.572 0-17.143 17.428-54 23.428-80.286 23.428s-63.143-6-80.286-23.428c-4-4-10.572-4-14.572 0-4.286 4-4.286 10.572 0 14.857 27.143 27.143 79.428 29.143 94.857 29.143s67.715-2 94.857-29.143zM350 341.428c23.428 0 42.572-19.143 42.572-42.857 0-23.428-19.143-42.572-42.572-42.572-23.714 0-42.857 19.143-42.857 42.572 0 23.714 19.143 42.857 42.857 42.857z"></path>
  </symbol>
  <symbol id="arrow-right" viewBox="0 0 512 512">
    <path
      d="M310.627 438.627l160-160c12.497-12.496 12.497-32.758 0-45.255l-160-160c-12.497-12.496-32.758-12.496-45.255 0s-12.497 32.758 0 45.255l105.373 105.373h-306.745c-17.673 0-32 14.327-32 32s14.327 32 32 32h306.745l-105.373 105.373c-6.248 6.248-9.372 14.438-9.372 22.627s3.124 16.379 9.372 22.627c12.497 12.497 32.758 12.497 45.255 0z"></path>
  </symbol>
  <symbol id="arrow-left" viewBox="0 0 512 512">
    <path
      d="M201.373 438.627l-160-160c-12.497-12.496-12.497-32.758 0-45.255l160-160c12.497-12.496 32.758-12.496 45.255 0s12.497 32.758 0 45.255l-105.373 105.373h306.745c17.673 0 32 14.327 32 32s-14.327 32-32 32h-306.745l105.373 105.373c6.248 6.248 9.372 14.438 9.372 22.627s-3.124 16.379-9.372 22.627c-12.497 12.497-32.758 12.497-45.255 0z"></path>
  </symbol>
  <symbol id="close" viewBox="0 0 402 512">
    <path
      d="M370.857 377.714c0 7.143-2.857 14.286-8 19.428l-38.857 38.857c-5.143 5.143-12.286 8-19.428 8s-14.286-2.857-19.428-8l-84-84-84 84c-5.143 5.143-12.285 8-19.428 8s-14.285-2.857-19.428-8l-38.857-38.857c-5.143-5.143-8-12.286-8-19.428s2.857-14.286 8-19.428l84-84-84-84c-5.143-5.143-8-12.286-8-19.428s2.857-14.286 8-19.428l38.857-38.857c5.143-5.143 12.285-8 19.428-8s14.285 2.857 19.428 8l84 84 84-84c5.143-5.143 12.286-8 19.428-8s14.286 2.857 19.428 8l38.857 38.857c5.143 5.143 8 12.286 8 19.428s-2.857 14.286-8 19.428l-84 84 84 84c5.143 5.143 8 12.286 8 19.428z"></path>
  </symbol>
  <symbol id="youtube" viewBox="0 0 512 512">
    <path
      d="M203.143 322.286l138.285-71.428-138.286-72.286v143.714zM256 76c107.714 0 179.143 5.143 179.143 5.143 10 1.143 32 1.143 51.428 21.715 0 0 15.714 15.428 20.286 50.857 5.429 41.428 5.143 82.857 5.143 82.857v38.857s0.285 41.428-5.143 82.857c-4.572 35.143-20.286 50.857-20.286 50.857-19.428 20.286-41.428 20.286-51.428 21.428 0 0-71.428 5.428-179.143 5.428v0c-133.143-1.143-174-5.143-174-5.143-11.428-2-37.143-1.428-56.572-21.714 0 0-15.714-15.714-20.285-50.857-5.428-41.428-5.143-82.857-5.143-82.857v-38.857s-0.285-41.429 5.143-82.857c4.572-35.428 20.285-50.857 20.285-50.857 19.428-20.572 41.428-20.572 51.428-21.715 0 0 71.429-5.143 179.143-5.143v0z"></path>
  </symbol>
</svg>